<?xml version="1.0" encoding="UTF-8"?>
<svg version="1.1" xmlns="http://www.w3.org/2000/svg" width="456" height="150">
<path d="M0 0 C1.2375 -0.01998047 2.475 -0.03996094 3.75 -0.06054688 C12.09698906 -0.05615372 18.91562926 1.2583258 26.625 4.4375 C27.30755859 4.71456787 27.99011719 4.99163574 28.69335938 5.27709961 C37.48649138 9.06195898 44.55093809 14.07084428 51.625 20.4375 C49.9968356 24.19480247 47.61098083 27.054323 45 30.1875 C43.77410156 31.66476563 43.77410156 31.66476563 42.5234375 33.171875 C41.89695313 33.91953125 41.27046875 34.6671875 40.625 35.4375 C42.03846562 36.87814765 43.45591211 38.31489015 44.875 39.75 C46.05835938 40.95076172 46.05835938 40.95076172 47.265625 42.17578125 C49.52576404 44.44481326 49.52576404 44.44481326 51.921875 46.10546875 C52.48390625 46.54503906 53.0459375 46.98460937 53.625 47.4375 C53.625 48.0975 53.625 48.7575 53.625 49.4375 C54.15609375 49.64117187 54.6871875 49.84484375 55.234375 50.0546875 C58.65374104 52.03255609 61.13837921 54.74076899 63.875 57.5625 C64.42929688 58.12582031 64.98359375 58.68914063 65.5546875 59.26953125 C66.91604485 60.65436028 68.27114859 62.04533204 69.625 63.4375 C68.5504319 66.66120429 68.0194369 67.18318921 65.5 69.25 C61.19407867 72.89948323 57.05917019 76.70815157 52.9375 80.5625 C52.29603027 81.1603833 51.65456055 81.7582666 50.99365234 82.37426758 C47.46792196 85.67157165 44.04213566 89.02036434 40.625 92.4375 C44.255 96.0675 47.885 99.6975 51.625 103.4375 C46.23780677 114.21188646 33.29352261 119.92045453 22.625 124.4375 C21.96765869 124.72665283 21.31031738 125.01580566 20.63305664 125.3137207 C13.65757343 128.0400226 6.71948254 127.91689039 -0.6875 127.875 C-1.92951172 127.89498047 -3.17152344 127.91496094 -4.45117188 127.93554688 C-12.82092778 127.93115791 -19.63565503 126.59371912 -27.375 123.4375 C-28.48875 123.00308594 -29.6025 122.56867188 -30.75 122.12109375 C-46.83507794 114.48546896 -57.78498572 100.74869556 -64.375 84.4375 C-65.09089844 81.06856616 -65.43050188 77.87861682 -65.375 74.4375 C-65.91125 74.29054688 -66.4475 74.14359375 -67 73.9921875 C-75.30334761 71.61590052 -83.31736411 68.52659366 -91.375 65.4375 C-90.375 62.4375 -90.375 62.4375 -88.48901367 61.37841797 C-87.68181885 61.06533691 -86.87462402 60.75225586 -86.04296875 60.4296875 C-85.16189453 60.08292969 -84.28082031 59.73617187 -83.37304688 59.37890625 C-82.44556641 59.02699219 -81.51808594 58.67507812 -80.5625 58.3125 C-79.64662109 57.95285156 -78.73074219 57.59320313 -77.78710938 57.22265625 C-74.01043083 55.75379511 -70.33038834 54.34518258 -66.375 53.4375 C-66.23964844 52.64988281 -66.10429688 51.86226562 -65.96484375 51.05078125 C-62.69842992 34.52311845 -53.87928223 21.44035401 -40.375 11.5 C-35.31829475 8.21154136 -30.01889453 5.56123351 -24.375 3.4375 C-23.352854 3.04582642 -23.352854 3.04582642 -22.31005859 2.64624023 C-14.89379126 0.08515592 -7.79131292 -0.04436048 0 0 Z M-9.375 44.4375 C-10.426875 44.994375 -11.47875 45.55125 -12.5625 46.125 C-16.92631132 49.71302264 -18.61864598 54.16843793 -20.375 59.4375 C-20.88481434 66.82980787 -19.5655965 72.91689848 -15.625 79.25 C-9.86604978 84.84897938 -3.62252747 86.75983589 4.25 86.65625 C10.14451164 86.11333445 15.54573616 83.73726459 19.625 79.4375 C24.13853829 72.75447092 26.00858784 66.45316178 24.625 58.4375 C22.47515545 51.30906808 19.04053097 47.30897173 12.7109375 43.49609375 C5.43106815 39.80162822 -2.32684737 40.64234089 -9.375 44.4375 Z " fill="#161A45" transform="translate(91.375,4.5625)"/>
<path d="M0 0 C4.65123546 0.74028157 8.87436334 2.30821906 13.265625 3.94921875 C14.05845886 4.24431839 14.85129272 4.53941803 15.66815186 4.84346008 C17.34322499 5.46922034 19.01746482 6.09721519 20.69091797 6.72729492 C23.22357112 7.6775835 25.76190756 8.61140362 28.30078125 9.54492188 C36.5155659 12.60802757 43.98458976 15.61911458 51 21 C58.6629386 25.59776316 67.96225388 25.222644 76.4765625 23.15625 C84.27247175 20.40256368 90.59616754 16.17183263 97 11 C100.84938296 12.56826713 103.15328014 15.01711416 106 18 C106.96220848 18.96747184 107.92711374 19.93226814 108.89453125 20.89453125 C111.59635417 23.59635417 114.29817708 26.29817708 117 29 C112.59214992 39.75321668 98.08963844 45.7280537 88 50 C87.34265869 50.28915283 86.68531738 50.57830566 86.00805664 50.8762207 C79.03257343 53.6025226 72.09448254 53.47939039 64.6875 53.4375 C62.82448242 53.4674707 62.82448242 53.4674707 60.92382812 53.49804688 C52.55407222 53.49365791 45.73934497 52.15621912 38 49 C36.88625 48.56558594 35.7725 48.13117188 34.625 47.68359375 C18.53992206 40.04796896 7.59001428 26.31119556 1 10 C0.28410156 6.63106616 -0.05550188 3.44111682 0 0 Z " fill="#F16024" transform="translate(26,79)"/>
<path d="M0 0 C1.2375 -0.01998047 2.475 -0.03996094 3.75 -0.06054688 C12.09698906 -0.05615372 18.91562926 1.2583258 26.625 4.4375 C27.30755859 4.71456787 27.99011719 4.99163574 28.69335938 5.27709961 C37.48649138 9.06195898 44.55093809 14.07084428 51.625 20.4375 C50.028238 24.0579657 47.8099491 26.88179757 45.3125 29.9375 C44.55324219 30.8759375 43.79398437 31.814375 43.01171875 32.78125 C40.71626261 35.33593113 38.31109726 37.31381842 35.625 39.4375 C34.965 40.4275 34.305 41.4175 33.625 42.4375 C30.52823928 41.0342803 28.20342634 39.32740584 25.625 37.125 C15.74203473 29.45607565 5.83577229 27.00607528 -6.46582031 28.15087891 C-13.02010876 29.13486032 -17.71292788 32.84132079 -22.6875 36.9375 C-27.47472476 40.78881404 -32.44115893 42.69706577 -38.21533203 44.68066406 C-40.82208005 45.59417513 -43.40818237 46.55786963 -45.99609375 47.5234375 C-47.99723557 48.26605701 -49.99853842 49.00824272 -52 49.75 C-52.97283936 50.112146 -53.94567871 50.47429199 -54.94799805 50.84741211 C-55.86492432 51.18264893 -56.78185059 51.51788574 -57.7265625 51.86328125 C-58.54979004 52.16661377 -59.37301758 52.46994629 -60.22119141 52.7824707 C-62.375 53.4375 -62.375 53.4375 -65.375 53.4375 C-65.375 40.31802073 -58.48985261 28.68651064 -49.58447266 19.39868164 C-42.2610024 12.14696075 -34.00335582 7.06054111 -24.375 3.4375 C-23.69356934 3.17638428 -23.01213867 2.91526855 -22.31005859 2.64624023 C-14.89379126 0.08515592 -7.79131292 -0.04436048 0 0 Z " fill="#F16024" transform="translate(91.375,4.5625)"/>
<path d="M0 0 C10.23 0 20.46 0 31 0 C31 3.3 31 6.6 31 10 C24.4 10 17.8 10 11 10 C11 11.65 11 13.3 11 15 C16.94 15 22.88 15 29 15 C29 17.97 29 20.94 29 24 C23.06 24 17.12 24 11 24 C11 25.98 11 27.96 11 30 C17.93 30 24.86 30 32 30 C32.495 32.475 32.495 32.475 33 35 C38.12640578 23.38548691 43.09905731 11.71134356 48 0 C51.96 0 55.92 0 60 0 C60.58007812 1.42570313 61.16015625 2.85140625 61.7578125 4.3203125 C62.54665371 6.25529856 63.33573221 8.1901879 64.125 10.125 C64.53226318 11.12442627 64.93952637 12.12385254 65.35913086 13.15356445 C68.1394417 19.95554313 71.00979226 26.7075832 74.00390625 33.41796875 C75 36 75 36 75 39 C71.04 39 67.08 39 63 39 C62.34 37.02 61.68 35.04 61 33 C56.05 33 51.1 33 46 33 C45.34 34.98 44.68 36.96 44 39 C29.48 39 14.96 39 0 39 C0 26.13 0 13.26 0 0 Z M53 14 C51.68 17.3 50.36 20.6 49 24 C51.97 24 54.94 24 58 24 C56.68 20.7 55.36 17.4 54 14 C53.67 14 53.34 14 53 14 Z " fill="#F26124" transform="translate(252,14)"/>
<path d="M0 0 C3.63 0 7.26 0 11 0 C12.29231226 2.41632339 13.58387191 4.83304396 14.875 7.25 C15.23980469 7.93191406 15.60460937 8.61382812 15.98046875 9.31640625 C16.33496094 9.98027344 16.68945312 10.64414063 17.0546875 11.328125 C17.37937012 11.9355957 17.70405273 12.54306641 18.03857422 13.16894531 C19.05243355 15.09986076 20.03073001 17.04637411 21 19 C21.23710693 18.45996338 21.47421387 17.91992676 21.71850586 17.36352539 C22.78909926 14.92878456 23.86325029 12.49562968 24.9375 10.0625 C25.31068359 9.21236328 25.68386719 8.36222656 26.06835938 7.48632812 C26.42607422 6.67744141 26.78378906 5.86855469 27.15234375 5.03515625 C27.48226318 4.2862915 27.81218262 3.53742676 28.15209961 2.76586914 C29 1 29 1 30 0 C33.96 0 37.92 0 42 0 C42 12.87 42 25.74 42 39 C38.7 39 35.4 39 32 39 C31.67 33.06 31.34 27.12 31 21 C30.030625 23.124375 29.06125 25.24875 28.0625 27.4375 C25.125 33.875 25.125 33.875 24 35 C21.66702567 35.04092937 19.33294775 35.04241723 17 35 C15.02 31.04 13.04 27.08 11 23 C10.67 28.28 10.34 33.56 10 39 C6.7 39 3.4 39 0 39 C0 26.13 0 13.26 0 0 Z " fill="#151A46" transform="translate(175,62)"/>
<path d="M0 0 C0.97775391 -0.02900391 1.95550781 -0.05800781 2.96289062 -0.08789062 C9.31708198 -0.14321848 14.19677412 0.53715501 19.4375 4.3125 C22.06290923 7.19863116 23.27034097 10.48419816 23.625 14.36328125 C23.28550128 19.8270887 20.82687493 23.14096163 17.4375 27.3125 C17.9428125 28.09496094 18.448125 28.87742187 18.96875 29.68359375 C19.6184375 30.69550781 20.268125 31.70742188 20.9375 32.75 C21.5871875 33.75933594 22.236875 34.76867188 22.90625 35.80859375 C24.4375 38.3125 24.4375 38.3125 24.4375 39.3125 C20.1475 39.3125 15.8575 39.3125 11.4375 39.3125 C10.29817708 37.00130208 9.15885417 34.69010417 8.01953125 32.37890625 C6.57116813 30.06559288 6.57116813 30.06559288 3.76171875 29.52734375 C2.99472656 29.45644531 2.22773438 29.38554688 1.4375 29.3125 C1.1075 32.6125 0.7775 35.9125 0.4375 39.3125 C-3.5225 39.3125 -7.4825 39.3125 -11.5625 39.3125 C-11.58714849 33.91903012 -11.60533531 28.52559275 -11.61743164 23.13208008 C-11.62247231 21.29581125 -11.62930477 19.45954646 -11.63793945 17.62329102 C-11.65001672 14.98973599 -11.65573081 12.35623384 -11.66015625 9.72265625 C-11.66531754 8.89661392 -11.67047882 8.07057159 -11.67579651 7.21949768 C-11.67599205 5.25013632 -11.62454152 3.28088386 -11.5625 1.3125 C-9.16631869 -1.08368131 -3.21205891 0.03090499 0 0 Z M0.4375 10.3125 C0.4375 13.2825 0.4375 16.2525 0.4375 19.3125 C2.06168745 19.39340971 3.68701745 19.45164995 5.3125 19.5 C6.21742188 19.53480469 7.12234375 19.56960937 8.0546875 19.60546875 C8.84101563 19.50878906 9.62734375 19.41210938 10.4375 19.3125 C12.75293207 16.54261924 12.75293207 16.54261924 12.125 13.6875 C11.6633486 11.37748035 11.6633486 11.37748035 10.4375 10.3125 C8.75141034 10.24044489 7.06249341 10.22863932 5.375 10.25 C4.45589844 10.25902344 3.53679687 10.26804687 2.58984375 10.27734375 C1.87957031 10.28894531 1.16929687 10.30054688 0.4375 10.3125 Z " fill="#F26124" transform="translate(224.5625,13.6875)"/>
<path d="M0 0 C3.63 -0.0825 7.26 -0.165 11 -0.25 C12.12792969 -0.28641602 13.25585938 -0.32283203 14.41796875 -0.36035156 C22.58441205 -0.44961804 27.82639995 1.10236517 33.875 6.625 C37.28770326 12.04517576 38.70037706 17.81436407 37.5 24.1875 C35.69973624 29.88833525 31.9572138 33.80170584 26.9375 36.875 C17.8058472 40.37222873 10.59927078 39 0 39 C0 26.13 0 13.26 0 0 Z M11 9 C11 15.6 11 22.2 11 29 C20.18415303 29.98418332 20.18415303 29.98418332 23.5625 27.125 C26.22610183 23.18750164 26.67396344 19.69078552 26 15 C24.20636089 12.1899654 22.98119065 10.49059532 20 9 C17.03 9 14.06 9 11 9 Z " fill="#151A46" transform="translate(259,62)"/>
<path d="M0 0 C10.23 0 20.46 0 31 0 C31 2.97 31 5.94 31 9 C24.4 9 17.8 9 11 9 C11 10.98 11 12.96 11 15 C16.94 15 22.88 15 29 15 C29 17.97 29 20.94 29 24 C23.06 24 17.12 24 11 24 C11 25.98 11 27.96 11 30 C17.6 30 24.2 30 31 30 C31 32.97 31 35.94 31 39 C20.77 39 10.54 39 0 39 C0 26.13 0 13.26 0 0 Z " fill="#151A46" transform="translate(223,62)"/>
<path d="M0 0 C9.9 0 19.8 0 30 0 C30 3.3 30 6.6 30 10 C23.73 10 17.46 10 11 10 C11 11.65 11 13.3 11 15 C16.94 15 22.88 15 29 15 C29 17.97 29 20.94 29 24 C23.06 24.33 17.12 24.66 11 25 C11 26.32 11 27.64 11 29 C17.27 29.33 23.54 29.66 30 30 C30 32.97 30 35.94 30 39 C20.1 39 10.2 39 0 39 C0 26.13 0 13.26 0 0 Z " fill="#F26124" transform="translate(414,14)"/>
<path d="M0 0 C-0.433125 1.0209375 -0.433125 1.0209375 -0.875 2.0625 C-3.22073523 8.18747531 -4.41378359 13.73317517 -4.4375 20.25 C-4.44136719 20.99000244 -4.44523437 21.73000488 -4.44921875 22.49243164 C-4.32687566 28.35406756 -2.93712319 32.82273419 -0.09375 37.99609375 C1 40 1 40 1 42 C-3.81824407 40.67221667 -8.52894566 39.31204801 -13.0625 37.1875 C-18.27802797 34.75358695 -23.70257091 32.94769185 -29.14868164 31.10620117 C-32.41156297 29.98778403 -35.11389733 28.92406845 -38 27 C-38.29296875 23.9609375 -38.29296875 23.9609375 -38.1875 20.375 C-38.16042969 19.18648437 -38.13335937 17.99796875 -38.10546875 16.7734375 C-38.07066406 15.85820313 -38.03585938 14.94296875 -38 14 C-31.75557402 11.10080222 -25.41944227 8.60943529 -18.96606445 6.22558594 C-14.23705758 4.47670773 -9.56172344 2.630265 -4.91796875 0.6640625 C-3 0 -3 0 0 0 Z " fill="#EC5F24" transform="translate(63,48)"/>
<path d="M0 0 C2.6015625 -0.29296875 2.6015625 -0.29296875 5.625 -0.1875 C7.12933594 -0.14689453 7.12933594 -0.14689453 8.6640625 -0.10546875 C9.43492187 -0.07066406 10.20578125 -0.03585938 11 0 C13.89579617 6.48215118 16.7492478 12.98160452 19.5625 19.5 C19.94857422 20.38558594 20.33464844 21.27117187 20.73242188 22.18359375 C23.11421796 27.71000988 25.20370017 33.25604857 27 39 C25.23050905 39.10815225 23.45912513 39.18566083 21.6875 39.25 C20.70136719 39.29640625 19.71523438 39.3428125 18.69921875 39.390625 C16 39 16 39 14.14453125 37.171875 C13 35 13 35 13 32 C7.72 32 2.44 32 -3 32 C-3.66 33.98 -4.32 35.96 -5 38 C-6 39 -6 39 -8.28515625 39.09765625 C-9.65994141 39.08025391 -9.65994141 39.08025391 -11.0625 39.0625 C-11.98160156 39.05347656 -12.90070313 39.04445312 -13.84765625 39.03515625 C-14.55792969 39.02355469 -15.26820313 39.01195312 -16 39 C-14.83755827 31.63786901 -12.02708054 25.45434598 -8.8125 18.80859375 C-6.69215489 14.41533668 -4.85537063 9.91853687 -3.04296875 5.390625 C-2 3 -2 3 0 0 Z M4 13 C3.01 16.3 2.02 19.6 1 23 C3.64 23 6.28 23 9 23 C8.55090939 21.51800098 8.09043436 20.03944764 7.625 18.5625 C7.24214844 17.32693359 7.24214844 17.32693359 6.8515625 16.06640625 C6.19117773 13.82201984 6.19117773 13.82201984 4 13 Z " fill="#151A46" transform="translate(329,62)"/>
<path d="M0 0 C3.63 0 7.26 0 11 0 C14.41128405 7.88509919 17.40097348 15.81088851 20 24 C23.09124174 16.03118421 26.10480988 8.04219478 29 0 C32.63 0 36.26 0 40 0 C39.41993709 4.13981739 38.4804841 7.7440027 36.9375 11.625 C36.49921875 12.73488281 36.0609375 13.84476563 35.609375 14.98828125 C35.0731886 16.32562989 34.53669936 17.66285714 34 19 C33.29660847 20.76421667 32.59350175 22.52854692 31.890625 24.29296875 C29.93418017 29.19817625 27.96888467 34.09977338 26 39 C22.04 39 18.08 39 14 39 C13.68248779 38.18845459 13.36497559 37.37690918 13.0378418 36.54077148 C11.84781712 33.50070661 10.65678402 30.46104072 9.46508789 27.42163086 C8.95166867 26.11156556 8.43864 24.80134714 7.92602539 23.4909668 C7.18480963 21.59642797 6.44214341 19.702463 5.69921875 17.80859375 C5.25408936 16.67220459 4.80895996 15.53581543 4.3503418 14.36499023 C3.6494863 12.61849028 2.9424446 10.87323264 2.16445923 9.15969849 C0.62779802 5.77483364 0 3.79988357 0 0 Z " fill="#F26124" transform="translate(371,14)"/>
<path d="M0 0 C2.52983377 1.45799264 4.82676908 2.8001792 6.98828125 4.765625 C6.98828125 7.765625 6.98828125 7.765625 4.48828125 10.453125 C3.66328125 11.21625 2.83828125 11.979375 1.98828125 12.765625 C-2.88671875 10.890625 -2.88671875 10.890625 -4.01171875 9.765625 C-8.22476856 9.24433486 -11.8264948 9.10074327 -15.57421875 11.203125 C-17.71717461 15.02317674 -17.79003159 18.48883526 -17.01171875 22.765625 C-15.12725647 25.55742097 -13.78594544 26.45174932 -10.69921875 27.703125 C-6.99295373 27.78931721 -4.37815798 26.23461666 -1.01171875 24.765625 C2.11429794 24.85493976 2.90137139 25.68595763 5.23828125 27.828125 C5.81578125 28.4675 6.39328125 29.106875 6.98828125 29.765625 C5.23898915 34.0012206 3.17777213 35.09748771 -0.8671875 36.94140625 C-6.97992816 39.29074738 -11.99413192 38.90294971 -18.01171875 36.765625 C-23.59221964 34.17004319 -27.03651298 30.11498436 -29.38671875 24.453125 C-30.49787872 17.8972812 -29.93400932 12.02784092 -26.3203125 6.3359375 C-19.82292222 -1.46093084 -9.39367599 -3.85006694 0 0 Z " fill="#F26124" transform="translate(204.01171875,15.234375)"/>
<path d="M0 0 C10.89 0 21.78 0 33 0 C33 3.3 33 6.6 33 10 C29.37 10 25.74 10 22 10 C22 19.57 22 29.14 22 39 C18.37 39 14.74 39 11 39 C11 29.43 11 19.86 11 10 C7.37 10 3.74 10 0 10 C0 6.7 0 3.4 0 0 Z " fill="#F26124" transform="translate(322,14)"/>
<path d="M0 0 C3.63 0 7.26 0 11 0 C11 12.87 11 25.74 11 39 C7.37 39 3.74 39 0 39 C0 26.13 0 13.26 0 0 Z " fill="#151A46" transform="translate(300,62)"/>
<path d="M0 0 C3.63 0 7.26 0 11 0 C11 12.87 11 25.74 11 39 C7.37 39 3.74 39 0 39 C0 26.13 0 13.26 0 0 Z " fill="#F26124" transform="translate(358,14)"/>
<path d="M0 0 C0.99 0 1.98 0 3 0 C3 2.97 3 5.94 3 9 C4.32 9 5.64 9 7 9 C7 6.03 7 3.06 7 0 C10.96 0 14.92 0 19 0 C19 0.99 19 1.98 19 3 C18.34 3 17.68 3 17 3 C17 5.64 17 8.28 17 11 C16.01 11.33 15.02 11.66 14 12 C14 9.03 14 6.06 14 3 C12.68 3 11.36 3 10 3 C9.87625 4.11375 9.7525 5.2275 9.625 6.375 C9 10 9 10 7 12 C1.43181818 11.43181818 1.43181818 11.43181818 0 10 C-0.07205511 8.31391034 -0.08386068 6.62499341 -0.0625 4.9375 C-0.05347656 4.01839844 -0.04445313 3.09929687 -0.03515625 2.15234375 C-0.02355469 1.44207031 -0.01195312 0.73179688 0 0 Z " fill="#000000" transform="translate(389,111)"/>
<path d="M0 0 C0.66 0.33 1.32 0.66 2 1 C-0.41821524 4.62732286 -2.8400111 5.4093049 -6.75 6.875 C-7.41088623 7.13039551 -8.07177246 7.38579102 -8.75268555 7.64892578 C-10.83039599 8.44586258 -12.91378068 9.22563274 -15 10 C-15.67434082 10.25136719 -16.34868164 10.50273438 -17.04345703 10.76171875 C-28.47728588 15 -28.47728588 15 -31 15 C-31 14.34 -31 13.68 -31 13 C-31.66 12.67 -32.32 12.34 -33 12 C-32.3201001 11.77860352 -31.6402002 11.55720703 -30.93969727 11.32910156 C-27.81233802 10.30764104 -24.68742807 9.27887299 -21.5625 8.25 C-19.95858398 7.72792969 -19.95858398 7.72792969 -18.32226562 7.1953125 C-12.60837149 5.3081548 -7.1235497 3.29082192 -1.72241211 0.62792969 C-1.15401611 0.42071289 -0.58562012 0.21349609 0 0 Z " fill="#312242" transform="translate(58,46)"/>
<path d="M0 0 C4 2 4 2 6 4 C6.45375 3.34 6.9075 2.68 7.375 2 C7.91125 1.34 8.4475 0.68 9 0 C9.66 0 10.32 0 11 0 C11 3.96 11 7.92 11 12 C8.64828869 11.40138258 6.3140622 10.73075648 4 10 C3.67 9.34 3.34 8.68 3 8 C2.67 9.32 2.34 10.64 2 12 C1.34 12 0.68 12 0 12 C0 8.04 0 4.08 0 0 Z " fill="#000000" transform="translate(185,111)"/>
<path d="M0 0 C4 2 4 2 6 4 C6.33 2.68 6.66 1.36 7 0 C7.99 0 8.98 0 10 0 C10 3.96 10 7.92 10 12 C6 11 6 11 4 8 C3.34 9.32 2.68 10.64 2 12 C1.34 12 0.68 12 0 12 C0 8.04 0 4.08 0 0 Z " fill="#000000" transform="translate(239,111)"/>
<path d="M0 0 C6.17456556 0 6.85299144 0.09693312 11 4 C10.64987213 6.59094622 10.26229035 8.5774211 8.875 10.8125 C5.99131838 12.63883169 3.32254207 12.18806842 0 12 C0 8.04 0 4.08 0 0 Z M3 3 C2.67 4.98 2.34 6.96 2 9 C3.65 8.67 5.3 8.34 7 8 C7 6.68 7 5.36 7 4 C5.68 3.67 4.36 3.34 3 3 Z " fill="#000000" transform="translate(424,111)"/>
<path d="M0 0 C6.75 0 6.75 0 10 3 C9.835 3.928125 9.67 4.85625 9.5 5.8125 C8.92251612 8.95621353 8.92251612 8.95621353 9 12 C8.01 11.67 7.02 11.34 6 11 C6 10.34 6 9.68 6 9 C5.01 9 4.02 9 3 9 C3 9.99 3 10.98 3 12 C2.01 12 1.02 12 0 12 C0 8.04 0 4.08 0 0 Z M3 3 C3 3.99 3 4.98 3 6 C4.32 5.67 5.64 5.34 7 5 C6.67 4.34 6.34 3.68 6 3 C5.01 3 4.02 3 3 3 Z " fill="#000000" transform="translate(351,111)"/>
<path d="M0 0 C2.64 0 5.28 0 8 0 C8 2.33333333 8 4.66666667 8 7 C6.35 7 4.7 7 3 7 C3 7.66 3 8.32 3 9 C4.98 9 6.96 9 9 9 C9 9.99 9 10.98 9 12 C6.03 12 3.06 12 0 12 C0 8.04 0 4.08 0 0 Z " fill="#000000" transform="translate(277,111)"/>
<path d="M0 0 C7.75 0.75 7.75 0.75 10 3 C10.375 5.9375 10.375 5.9375 10 9 C8.375 10.875 8.375 10.875 6 12 C2.75 12.1875 2.75 12.1875 0 12 C-1.12256131 9.75487738 -1.13413762 8.48543351 -1.125 6 C-1.12886719 4.948125 -1.12886719 4.948125 -1.1328125 3.875 C-1 2 -1 2 0 0 Z M2 3 C2 4.98 2 6.96 2 9 C3.65 8.67 5.3 8.34 7 8 C7 6.68 7 5.36 7 4 C5.35 3.67 3.7 3.34 2 3 Z " fill="#000000" transform="translate(266,111)"/>
<path d="M0 0 C2.05078125 0.03255208 4.1015625 0.06510417 6.15234375 0.09765625 C5.82234375 2.40765625 5.49234375 4.71765625 5.15234375 7.09765625 C3.50234375 7.09765625 1.85234375 7.09765625 0.15234375 7.09765625 C0.15234375 7.75765625 0.15234375 8.41765625 0.15234375 9.09765625 C2.13234375 9.09765625 4.11234375 9.09765625 6.15234375 9.09765625 C6.15234375 10.08765625 6.15234375 11.07765625 6.15234375 12.09765625 C0 12.1953125 0 12.1953125 -1.84765625 12.09765625 C-2.84765625 11.09765625 -2.84765625 11.09765625 -2.98046875 8.84765625 C-2.97789062 7.94015625 -2.9753125 7.03265625 -2.97265625 6.09765625 C-2.97523438 5.19015625 -2.9778125 4.28265625 -2.98046875 3.34765625 C-2.81750736 0.58689864 -2.7691363 0.14636027 0 0 Z " fill="#000000" transform="translate(302.84765625,110.90234375)"/>
<path d="M0 0 C2.64 0 5.28 0 8 0 C8 2.33333333 8 4.66666667 8 7 C6.35 7 4.7 7 3 7 C3 7.66 3 8.32 3 9 C4.98 9 6.96 9 9 9 C8.67 9.99 8.34 10.98 8 12 C5.36 12 2.72 12 0 12 C0 8.04 0 4.08 0 0 Z " fill="#000000" transform="translate(362,111)"/>
<path d="M0 0 C0.33 0.33 0.66 0.66 1 1 C0.75 4.4375 0.75 4.4375 0 8 C-3 10 -3 10 -6.0625 9.8125 C-9 9 -9 9 -11 6 C-10.875 2.9375 -10.875 2.9375 -10 0 C-6.60159064 -3.02080832 -3.88167584 -1.6389298 0 0 Z M-8 2 C-7.67 3.65 -7.34 5.3 -7 7 C-5.35 6.67 -3.7 6.34 -2 6 C-2 4.68 -2 3.36 -2 2 C-5.04913228 0.98888907 -5.04913228 0.98888907 -8 2 Z " fill="#000000" transform="translate(387,113)"/>
<path d="M0 0 C0.33 0.33 0.66 0.66 1 1 C0.75 4.4375 0.75 4.4375 0 8 C-3 10 -3 10 -6.0625 9.8125 C-9 9 -9 9 -11 6 C-10.875 2.9375 -10.875 2.9375 -10 0 C-6.60159064 -3.02080832 -3.88167584 -1.6389298 0 0 Z M-8 2 C-7.67 3.65 -7.34 5.3 -7 7 C-5.35 6.67 -3.7 6.34 -2 6 C-2 4.68 -2 3.36 -2 2 C-5.04913228 0.98888907 -5.04913228 0.98888907 -8 2 Z " fill="#000000" transform="translate(349,113)"/>
<path d="M0 0 C2.64 0 5.28 0 8 0 C8 2.31 8 4.62 8 7 C6.02 7 4.04 7 2 7 C2 7.66 2 8.32 2 9 C3.98 9 5.96 9 8 9 C8 9.99 8 10.98 8 12 C5.36 12 2.72 12 0 12 C0 8.04 0 4.08 0 0 Z " fill="#000000" transform="translate(436,111)"/>
<path d="M0 0 C6.75 0.75 6.75 0.75 9 3 C8.625 5.9375 8.625 5.9375 8 9 C8 9.99 8 10.98 8 12 C7.01 11.67 6.02 11.34 5 11 C5 10.34 5 9.68 5 9 C4.54625 9.495 4.0925 9.99 3.625 10.5 C2 12 2 12 0 12 C0 8.04 0 4.08 0 0 Z M2 3 C2 3.99 2 4.98 2 6 C3.32 5.67 4.64 5.34 6 5 C5.67 4.34 5.34 3.68 5 3 C4.01 3 3.02 3 2 3 Z " fill="#000000" transform="translate(210,111)"/>
<path d="M0 0 C-0.33 0.99 -0.66 1.98 -1 3 C-1.99 3 -2.98 3 -4 3 C-2.68 3.66 -1.36 4.32 0 5 C-0.33 6.65 -0.66 8.3 -1 10 C-6.75 11.125 -6.75 11.125 -9 10 C-9 9.01 -9 8.02 -9 7 C-7.35 7 -5.7 7 -4 7 C-5.65 6.01 -7.3 5.02 -9 4 C-8.625 2.0625 -8.625 2.0625 -8 0 C-5.13822943 -1.43088528 -3.06624227 -0.59991697 0 0 Z " fill="#000000" transform="translate(259,112)"/>
<path d="M0 0 C0.66 0 1.32 0 2 0 C2.67667998 1.24460783 3.34094719 2.49596896 4 3.75 C4.556875 4.79414062 4.556875 4.79414062 5.125 5.859375 C6 8 6 8 6 12 C5.01 11.67 4.02 11.34 3 11 C3 10.34 3 9.68 3 9 C1.02463255 9.34786708 1.02463255 9.34786708 -1 10 C-1.33 10.66 -1.66 11.32 -2 12 C-2.99 12 -3.98 12 -5 12 C-4.54738642 10.56068883 -4.08767021 9.12361001 -3.625 7.6875 C-3.24214844 6.48673828 -3.24214844 6.48673828 -2.8515625 5.26171875 C-2 3 -2 3 0 0 Z " fill="#000000" transform="translate(202,111)"/>
<path d="M0 0 C7.53676749 1.7595027 14.6710941 4.63098981 21.125 8.93359375 C21.125 9.59359375 21.125 10.25359375 21.125 10.93359375 C12.24657015 8.50056249 3.71094775 5.22522881 -4.875 1.93359375 C-1.875 -0.06640625 -1.875 -0.06640625 0 0 Z " fill="#282043" transform="translate(40.875,81.06640625)"/>
<path d="M0 0 C6.75 0.875 6.75 0.875 9 2 C8.8125 4.375 8.8125 4.375 8 7 C5.5 8.125 5.5 8.125 3 9 C2.67 9.99 2.34 10.98 2 12 C1.34 12 0.68 12 0 12 C0 8.04 0 4.08 0 0 Z M3 3 C2.67 3.99 2.34 4.98 2 6 C3.32 5.67 4.64 5.34 6 5 C5.67 4.34 5.34 3.68 5 3 C4.34 3 3.68 3 3 3 Z " fill="#000000" transform="translate(321,111)"/>
<path d="M0 0 C0 0.99 0 1.98 0 3 C-0.99 3 -1.98 3 -3 3 C-2.01 3.66 -1.02 4.32 0 5 C-0.33 6.65 -0.66 8.3 -1 10 C-3.3125 10.625 -3.3125 10.625 -6 11 C-6.99 10.34 -7.98 9.68 -9 9 C-9 8.34 -9 7.68 -9 7 C-7.02 7 -5.04 7 -3 7 C-4.65 6.01 -6.3 5.02 -8 4 C-7.625 2.0625 -7.625 2.0625 -7 0 C-4.3333581 -1.33332095 -2.83319697 -0.67102033 0 0 Z " fill="#000000" transform="translate(417,112)"/>
<path d="M0 0 C0.763125 0.20625 1.52625 0.4125 2.3125 0.625 C2.3125 1.615 2.3125 2.605 2.3125 3.625 C1.3225 3.625 0.3325 3.625 -0.6875 3.625 C0.3025 4.285 1.2925 4.945 2.3125 5.625 C1.9825 7.275 1.6525 8.925 1.3125 10.625 C-3.4375 11.75 -3.4375 11.75 -5.6875 10.625 C-5.6875 9.635 -5.6875 8.645 -5.6875 7.625 C-3.2125 8.12 -3.2125 8.12 -0.6875 8.625 C-0.6875 7.965 -0.6875 7.305 -0.6875 6.625 C-2.0075 6.295 -3.3275 5.965 -4.6875 5.625 C-5.0175 4.305 -5.3475 2.985 -5.6875 1.625 C-2.6875 -0.375 -2.6875 -0.375 0 0 Z " fill="#000000" transform="translate(180.6875,111.375)"/>
<path d="M0 0 C0.7425 0.37125 1.485 0.7425 2.25 1.125 C4.94283647 2.29515863 4.94283647 2.29515863 7.3125 1.125 C7.869375 0.75375 8.42625 0.3825 9 0 C8.835 0.5775 8.67 1.155 8.5 1.75 C7.69109799 5.39005903 7.99226083 8.47291292 9 12 C5.125 10.125 5.125 10.125 4 9 C3.01 10.485 3.01 10.485 2 12 C1.34 12 0.68 12 0 12 C0.57584432 9.61435923 1.22227595 7.33317216 2 5 C1.34 4.34 0.68 3.68 0 3 C0 2.01 0 1.02 0 0 Z " fill="#000000" transform="translate(310,111)"/>
<path d="M0 0 C2.97 0 5.94 0 9 0 C9 0.99 9 1.98 9 3 C8.01 3 7.02 3 6 3 C6 5.97 6 8.94 6 12 C5.01 12 4.02 12 3 12 C3 9.03 3 6.06 3 3 C2.01 3 1.02 3 0 3 C0 2.01 0 1.02 0 0 Z " fill="#000000" transform="translate(219,111)"/>
<path d="M0 0 C0.99 0.33 1.98 0.66 3 1 C3 3.31 3 5.62 3 8 C4.32 8.33 5.64 8.66 7 9 C7 9.99 7 10.98 7 12 C4.69 12 2.38 12 0 12 C0 8.04 0 4.08 0 0 Z " fill="#000000" transform="translate(331,111)"/>
<path d="M0 0 C0.99 0 1.98 0 3 0 C3 3.96 3 7.92 3 12 C2.01 12 1.02 12 0 12 C0 8.04 0 4.08 0 0 Z " fill="#000000" transform="translate(419,111)"/>
<path d="M0 0 C0.99 0 1.98 0 3 0 C3 3.96 3 7.92 3 12 C2.01 12 1.02 12 0 12 C0 8.04 0 4.08 0 0 Z " fill="#000000" transform="translate(260,111)"/>
<path d="M0 0 C0.99 0 1.98 0 3 0 C3 3.96 3 7.92 3 12 C2.01 12 1.02 12 0 12 C0 8.04 0 4.08 0 0 Z " fill="#000000" transform="translate(234,111)"/>
<path d="M0 0 C0 0.66 0 1.32 0 2 C-4.455 3.485 -4.455 3.485 -9 5 C-9 4.34 -9 3.68 -9 3 C-9.66 2.67 -10.32 2.34 -11 2 C-7.12315913 0.80712589 -4.08378077 0 0 0 Z " fill="#2B2142" transform="translate(36,56)"/>
<path d="M0 0 C1.20076172 0.31324219 1.20076172 0.31324219 2.42578125 0.6328125 C3.23402344 0.83648437 4.04226562 1.04015625 4.875 1.25 C5.48988281 1.41757813 6.10476562 1.58515625 6.73828125 1.7578125 C5.74828125 3.2428125 5.74828125 3.2428125 4.73828125 4.7578125 C1.43828125 3.7678125 -1.86171875 2.7778125 -5.26171875 1.7578125 C-2.26171875 -0.2421875 -2.26171875 -0.2421875 0 0 Z " fill="#3E2640" transform="translate(41.26171875,81.2421875)"/>
<path d="M0 0 C0.99 0 1.98 0 3 0 C3 0.99 3 1.98 3 3 C2.01 3 1.02 3 0 3 C0 2.01 0 1.02 0 0 Z " fill="#000000" transform="translate(291,120)"/>
</svg>
